# AST/ASF file generated using VICON BodyLanguage
# -----------------------------------------------
:version 1.10
:name VICON
:units
  mass 1.0
  length 0.45
  angle deg
:documentation
   .ast/.asf automatically generated from VICON data using
   VICON BodyBuilder and BodyLanguage model FoxedUp or BRILLIANT.MOD
:root
   order TX TY TZ RX RY RZ
   axis XYZ
   position 0 0 0  
   orientation 0 0 0 
:bonedata
  begin
     id 1 
     name lhipjoint
     direction 0.627457 -0.725269 0.283342 
     length 2.53237 
     axis 0 0 0  XYZ
  end
  begin
     id 2 
     name lfemur
     direction 0.34202 -0.939693 0  
     length 7.32496  
     axis 0 0 20  XYZ
    dof rx ry rz
    limits (-160.0 20.0)
           (-70.0 70.0)
           (-60.0 70.0)
  end
  begin
     id 3 
     name ltibia
     direction 0.34202 -0.939693 0   
     length 7.69674   
     axis 0 0 20   XYZ
    dof rx
    limits (-10.0 170.0)
  end
  begin
     id 4 
     name lfoot
     direction 0.127289 -0.349722 0.928166   
     length 1.8612   
     axis -90 7.62852e-016 20   XYZ
    dof rx rz
    limits (-45.0 90.0)
           (-70.0 20.0)
  end
  begin
     id 5 
     name ltoes
     direction 1.53561e-011 -4.21864e-011 1   
     length 0.925608   
     axis -90 7.62852e-016 20   XYZ
    dof rx
    limits (-90.0 20.0)
  end
  begin
     id 6 
     name rhipjoint
     direction -0.609094 -0.738725 0.288599   
     length 2.48624  
     axis 0 0 0  XYZ 
  end
  begin
     id 7 
     name rfemur
     direction -0.34202 -0.939693 0   
     length 7.44259   
     axis 0 0 -20   XYZ
    dof rx ry rz
    limits (-160.0 20.0)
           (-70.0 70.0)
           (-70.0 60.0)
  end
  begin
     id 8 
     name rtibia
     direction -0.34202 -0.939693 0   
     length 7.7781   
     axis 0 0 -20   XYZ
    dof rx
    limits (-10.0 170.0)
 end
 begin
     id 9 
     name rfoot
     direction -0.107015 -0.294021 0.949789   
     length 2.14741  
     axis -90 -7.62852e-016 -20   XYZ
    dof rx rz
    limits (-45.0 90.0)
           (-20.0 70.0)
  end
  begin
     id 10 
     name rtoes
     direction -1.53497e-011 -4.21924e-011 1   
     length 1.0706   
     axis -90 -7.62852e-016 -20   XYZ
    dof rx
    limits (-90.0 20.0)
  end
  begin
     id 11 
     name lowerback
     direction -0.0142066 0.998112 -0.0597545   
     length 1.86627   
     axis 0 0 0   XYZ
    dof rx ry rz
    limits (-20.0 45.0)
           (-30.0 30.0)
           (-30.0 30.0)
  end
  begin
     id 12 
     name upperback
     direction 0.00547294 0.999744 0.0219437   
     length 1.86272   
     axis 0 0 0   XYZ
    dof rx ry rz
    limits (-20.0 45.0)
           (-30.0 30.0)
           (-30.0 30.0)
  end
  begin
     id 13 
     name thorax
     direction 0.0116162 0.998704 0.0495538   
     length 1.8703   
     axis 0 0 0   XYZ
    dof rx ry rz
    limits (-20.0 45.0)
           (-30.0 30.0)
           (-30.0 30.0)
  end
  begin
     id 14 
     name lowerneck
     direction -0.0106574 0.998739 0.0490586   
     length 1.8074   
     axis 0 0 0   XYZ
    dof rx ry rz
    limits (-20.0 45.0)
           (-30.0 30.0)
           (-30.0 30.0)
  end
  begin
     id 15 
     name upperneck
     direction 0.030527 0.976587 -0.212944   
     length 1.80681   
     axis 0 0 0   XYZ
    dof rx ry rz
    limits (-20.0 45.0)
           (-30.0 30.0)
           (-30.0 30.0)
  end
  begin
     id 16
     name head
     direction 0.00869225 0.997035 -0.0764531  
     length 1.8313  
     axis 0 0 0   XYZ
    dof rx ry rz
    limits (-20.0 45.0)
           (-30.0 30.0)
           (-30.0 30.0)
  end
  begin
     id 17 
     name lclavicle
     direction 0.915958 0.399447 0.0382386  
     length 3.78965  
     axis 0 0 0   XYZ
    dof ry rz
    limits (-20.0 10.0)
           (0.0 20.0)
  end
  begin
     id 18 
     name lhumerus
     direction 1 -4.48967e-011 3.19303e-027   
     length 4.78095   
     axis -180 -30 -90   XYZ
    dof rx ry rz
    limits (-60.0 90.0)
           (-90.0 90.0)
           (-90.0 90.0)
  end
  begin
     id 19
     name lradius
     direction 1 -4.48967e-011 -3.77974e-027   
     length 3.58615   
     axis -180 -30 -90   XYZ
    dof rx
    limits (-10.0 170.0)
  end
  begin
     id 20
     name lwrist
     direction 1 -4.48927e-011 1.2807e-027   
     length 1.79307   
     axis 1.91374e-015 90 90   XYZ
    dof ry
    limits (-180.0 0.0)
 end
  begin
     id 21 
     name lhand
     direction 1 -4.49036e-011 2.5614e-027   
     length 0.659812   
     axis -1.63439e-015 90 90   XYZ
    dof rx rz
    limits (-90.0 90.0)
           (-45.0 45.0)
  end
  begin
     id 22 
     name lfingers
     direction 1 -4.49052e-011 5.1228e-027   
     length 0.531957   
     axis -3.26879e-015 90 90   XYZ
    dof rx
    limits (0.0 90.0)
  end
  begin
     id 23
     name lthumb
     direction 0.707107 -6.35012e-011 0.707107   
     length 0.763787   
     axis -90 45 2.85299e-015   XYZ
    dof rx rz
    limits (-45.0 45.0)
           (-45.0 45.0)
  end
  begin
     id 24 
     name rclavicle
     direction -0.895351 0.435135 0.0948887   
     length 3.70497  
     axis 0 0 0   XYZ 
    dof ry rz
    limits (-10.0 20.0)
           (-20.0 0.0)
  end
  begin
     id 25 
     name rhumerus
     direction -1 -4.48971e-011 2.38946e-027  
     length 4.48913   
     axis -180 30 90   XYZ
    dof rx ry rz
    limits (-90.0 60.0)
           (-90.0 90.0)
           (-90.0 90.0)
  end
  begin
     id 26 
     name rradius
     direction -1 -4.4895e-011 4.38668e-027   
     length 3.7051   
     axis -180 30 90   XYZ
    dof rx
    limits (-10.0 170.0)
  end
  begin
     id 27 
     name rwrist
     direction -1 -4.49007e-011 1.2807e-027   
     length 1.85255   
     axis 1.91374e-015 -90 -90   XYZ
    dof ry
    limits (-180.0 0.0)
  end
  begin
     id 28
     name rhand
     direction -1 -4.48851e-011 2.5614e-027   
     length 0.449136   
     axis -1.63439e-015 -90 -90   XYZ
    dof rx rz
    limits (-90.0 90.0)
           (-45.0 45.0)
  end
  begin
     id 29
     name rfingers
     direction -1 -4.49128e-011 5.1228e-027   
     length 0.362105   
     axis -3.26879e-015 -90 -90   XYZ
    dof rx
    limits (0.0 90.0)
  end
  begin
     id 30
     name rthumb
     direction -0.707107 -6.34851e-011 0.707107   
     length 0.519912   
     axis -90 -45 -2.85299e-015   XYZ
    dof rx rz
    limits (-45.0 45.0)
           (-45.0 45.0)
  end
:hierarchy
  begin
    root lhipjoint rhipjoint lowerback
    lhipjoint lfemur
    lfemur ltibia
    ltibia lfoot
    lfoot ltoes
    rhipjoint rfemur
    rfemur rtibia
    rtibia rfoot
    rfoot rtoes
    lowerback upperback
    upperback thorax
    thorax lowerneck lclavicle rclavicle
    lowerneck upperneck
    upperneck head
    lclavicle lhumerus
    lhumerus lradius
    lradius lwrist
    lwrist lhand lthumb
    lhand lfingers
    rclavicle rhumerus
    rhumerus rradius
    rradius rwrist
    rwrist rhand rthumb
    rhand rfingers
  end

#!OML:ASF I:\Actors\actors\Patient Classification 2\Patient 1\Session 1\actor1.ASF
:FULLY-SPECIFIED
:DEGREES
102
root -0.911926 18.6755 6.14725 1.37613 -3.98125 -4.40801
lowerback 4.42994 1.5127 1.65658
upperback -3.05735 2.19412 1.07466
thorax -5.63728 1.04372 -0.0153147
lowerneck -10.0635 -0.507142 2.03705
upperneck 26.1784 -1.21911 0.257615
head 9.94753 -0.337306 -0.397679
rclavicle -1.93567e-014 -2.26615e-014
rhumerus -51.9052 -5.30527 -85.0112
rradius 42.1056
rwrist 17.7657
rhand -8.50247 -29.3011
rfingers 7.12502
rthumb 17.4253 -58.54
lclavicle -1.93567e-014 -2.26615e-014
lhumerus -45.326 5.52814 86.8667
lradius 36.3041
lwrist -13.7527
lhand -5.61823 -26.243
lfingers 7.12502
lthumb 20.1993 2.7268
rfemur 0 0 0
rtibia 0
rfoot 0 0
rtoes 0
lfemur -4.19316 -6.19458 -10.7452
ltibia 23.2722
lfoot -25.4836 15.5316
ltoes -53.8597
103
root -0.911644 18.6751 6.14653 1.37793 -3.96255 -4.39476
lowerback 4.43705 1.51216 1.65719
upperback -3.06161 2.19325 1.06587
thorax -5.64545 1.04299 -0.0249626
lowerneck -10.0764 -0.514231 2.05992
upperneck 26.1984 -1.22405 0.218079
head 9.95669 -0.341525 -0.416149
rclavicle 3.85145e-016 -1.11319e-014
rhumerus -51.8975 -5.26729 -85.0434
rradius 42.1003
rwrist 17.6766
rhand -8.52429 -29.3211
rfingers 7.12502
rthumb 17.4043 -58.5619
lclavicle 3.85145e-016 -1.11319e-014
lhumerus -45.3262 5.41286 86.9692
lradius 36.5553
lwrist -14.0146
lhand -5.42577 -25.2989
lfingers 7.12502
lthumb 20.3843 3.65125
rfemur 0 0 0
rtibia 0
rfoot 0 0
rtoes 0
lfemur -4.20703 -6.24685 -10.7623
ltibia 23.2741
lfoot -25.4704 15.5486
ltoes -53.7971
104
root -0.911538 18.6751 6.14611 1.37669 -3.95659 -4.39448
lowerback 4.44809 1.51305 1.66364
upperback -3.06747 2.19533 1.06633
thorax -5.6577 1.04364 -0.0286918
lowerneck -10.1015 -0.516203 2.04516
upperneck 26.252 -1.23195 0.243481
head 9.98118 -0.34307 -0.405954
rclavicle 8.46077e-015 6.75868e-015
rhumerus -51.8749 -5.21673 -85.0661
rradius 42.0733
rwrist 17.5877
rhand -8.51537 -29.3548
rfingers 7.12502
rthumb 17.4129 -58.5949
lclavicle 8.46077e-015 6.75868e-015
lhumerus -45.3425 5.35865 87.0229
lradius 36.7156
lwrist -14.1848
lhand -5.0548 -24.8655
lfingers 7.12502
lthumb 20.7408 4.0461
rfemur 0 0 0
rtibia 0
rfoot 0 0
rtoes 0
lfemur -4.20993 -6.2111 -10.7582
ltibia 23.2743
lfoot -25.4155 15.5609
ltoes -53.8691
105
root -0.911693 18.6753 6.14556 1.36584 -3.95041 -4.39676
lowerback 4.44861 1.51004 1.69026
upperback -3.05919 2.19246 1.05638
thorax -5.64796 1.04107 -0.0535137
lowerneck -10.141 -0.517162 1.98787
upperneck 26.3246 -1.25597 0.36539
head 10.0164 -0.345108 -0.356576
rclavicle 1.38901e-014 1.53064e-014
rhumerus -51.844 -5.20304 -85.0818
rradius 42.0494
rwrist 17.5869
rhand -8.51754 -29.3458
rfingers 7.12502
rthumb 17.4108 -58.586
lclavicle 1.38901e-014 1.53064e-014
lhumerus -45.3144 5.4007 86.987
lradius 36.7219
lwrist -14.2053
lhand -4.49235 -24.9666
lfingers 7.12502
lthumb 21.2811 3.88505
rfemur 0 0 0
rtibia 0
rfoot 0 0
rtoes 0
lfemur -4.20298 -6.15219 -10.7488
ltibia 23.2786
lfoot -25.4118 15.5273
ltoes -54.007
106
root -0.9117 18.6755 6.14513 1.3516 -3.94644 -4.39329
lowerback 4.44841 1.5167 1.73291
upperback -3.05481 2.20307 1.03461
thorax -5.64069 1.04426 -0.100811
lowerneck -10.1368 -0.530378 1.95682
upperneck 26.3547 -1.2868 0.434014
head 10.0272 -0.354305 -0.330772
rclavicle -2.13818e-014 5.96354e-016
rhumerus -51.8477 -5.24867 -85.0817
rradius 42.0493
rwrist 17.6309
rhand -8.48527 -29.3304
rfingers 7.12502
rthumb 17.4419 -58.5679
lclavicle -2.13818e-014 5.96354e-016
lhumerus -45.2764 5.39543 86.9629
lradius 36.701
lwrist -14.1871
lhand -4.21375 -25.0815
lfingers 7.12502
lthumb 21.5487 3.73974
rfemur 0 0 0
rtibia 0
rfoot 0 0
rtoes 0
lfemur -4.19227 -6.17575 -10.7568
ltibia 23.2884
lfoot -25.4645 15.5167
ltoes -53.9543
107
root -0.911608 18.6755 6.14542 1.34352 -3.95178 -4.38612
lowerback 4.44999 1.52311 1.73529
upperback -3.05613 2.21185 1.03419
thorax -5.64277 1.04848 -0.103446
lowerneck -10.1209 -0.533051 1.96686
upperneck 26.3535 -1.28476 0.406293
head 10.0233 -0.355544 -0.341906
rclavicle -9.36773e-015 -1.25234e-014
rhumerus -51.8651 -5.27613 -85.0668
rradius 42.0704
rwrist 17.6434
rhand -8.41523 -29.3754
rfingers 7.12502
rthumb 17.5093 -58.6069
lclavicle -9.36773e-015 -1.25234e-014
lhumerus -45.2647 5.37255 86.9783
lradius 36.6981
lwrist -14.1556
lhand -4.26188 -25.1653
lfingers 7.12502
lthumb 21.5025 3.66117
rfemur 0 0 0
rtibia 0
rfoot 0 0
rtoes 0
lfemur -4.18411 -6.18216 -10.7689
ltibia 23.2917
lfoot -25.4723 15.5305
ltoes -53.8663
